<?xml version="1.0" encoding="UTF-8" standalone="no"?>
<!-- Created with Inkscape (http://www.inkscape.org/) -->

<svg
   width="481.54166mm"
   height="100.54166mm"
   viewBox="0 0 481.54166 100.54166"
   version="1.1"
   id="svg5"
   xml:space="preserve"
   inkscape:version="1.2.2 (732a01da63, 2022-12-09)"
   sodipodi:docname="dragon-name-logo-svg.svg"
   xmlns:inkscape="http://www.inkscape.org/namespaces/inkscape"
   xmlns:sodipodi="http://sodipodi.sourceforge.net/DTD/sodipodi-0.dtd"
   xmlns="http://www.w3.org/2000/svg"
   xmlns:svg="http://www.w3.org/2000/svg"><sodipodi:namedview
     id="namedview7"
     pagecolor="#ffffff"
     bordercolor="#000000"
     borderopacity="0.25"
     inkscape:showpageshadow="2"
     inkscape:pageopacity="0.0"
     inkscape:pagecheckerboard="0"
     inkscape:deskcolor="#d1d1d1"
     inkscape:document-units="mm"
     showgrid="false"
     inkscape:zoom="0.54299809"
     inkscape:cx="860.03986"
     inkscape:cy="410.68284"
     inkscape:window-width="1920"
     inkscape:window-height="1017"
     inkscape:window-x="1192"
     inkscape:window-y="838"
     inkscape:window-maximized="1"
     inkscape:current-layer="layer1" /><defs
     id="defs2" /><g
     inkscape:label="Layer 1"
     inkscape:groupmode="layer"
     id="layer1"
     transform="translate(139.81839,-81.001793)"><path
       style="fill:#000000;stroke-width:0.264583"
       d="m -94.35196,180.19267 c -6.17143,-0.69604 -13.09672,-2.86523 -18.25625,-5.71835 -4.19694,-2.32083 -7.26784,-4.67619 -11.12271,-8.53107 -6.10986,-6.10986 -9.66251,-11.89844 -12.26626,-19.98625 -4.42803,-13.75444 -2.20377,-29.58098 5.86324,-41.71954 0.71968,-1.0829 1.30953,-1.71568 1.52294,-1.63378 0.19159,0.0735 0.68566,0.63074 1.09796,1.23828 0.66982,0.98704 0.7492,1.32994 0.74566,3.22129 -0.005,2.63883 -0.39698,3.53653 -3.16508,7.24726 -2.71313,3.63706 -4.60302,6.57179 -5.89682,9.15691 -1.09665,2.1912 -2.28929,5.75435 -2.10805,6.29806 0.0569,0.17082 0.68177,-0.80901 1.38852,-2.1774 2.06285,-3.99407 5.81543,-8.62389 8.59276,-10.60153 1.21762,-0.86702 0.95567,-0.31914 -0.82158,1.71837 -1.99395,2.28593 -4.03493,5.13352 -4.91707,6.86031 -0.84438,1.65287 -1.40598,3.23507 -1.21579,3.42525 0.0808,0.0808 0.67133,-0.16036 1.31225,-0.53596 1.4577,-0.85427 3.30085,-0.94159 4.5314,-0.21469 1.88273,1.11216 2.92355,3.77516 3.15014,8.05988 0.0808,1.52796 0.23123,2.93678 0.33429,3.13069 0.11522,0.21678 0.4748,-0.44558 0.93366,-1.71979 1.86307,-5.17368 4.76525,-10.1333 7.87007,-13.44944 0.95374,-1.01865 1.79595,-1.79256 1.8716,-1.7198 0.0756,0.0728 -0.86942,1.62058 -2.10015,3.43959 -4.31723,6.38087 -7.11534,12.91221 -7.42764,17.33762 -0.1059,1.50049 -0.0656,2.24154 0.12193,2.24154 0.15407,0 1.01448,-0.34729 1.91201,-0.77176 2.99427,-1.41606 5.46324,-1.31632 7.29824,0.29482 1.20055,1.0541 1.79596,2.23905 2.489,4.95342 1.2366,4.84329 2.96043,9.54644 3.49902,9.54644 0.13545,0 0.16686,-0.25024 0.0698,-0.55609 -0.82707,-2.60586 -1.18208,-4.31396 -1.18208,-5.68744 0,-1.61937 0.39956,-3.28147 0.78886,-3.28147 0.11435,0 0.25821,1.16086 0.31968,2.57969 0.0757,1.74786 0.25847,2.85696 0.56674,3.43958 0.40304,0.76175 0.58254,0.86019 1.57266,0.86248 3.10902,0.007 6.37845,3.11467 9.18359,8.72866 0.618053,1.23693 1.169408,2.29856 1.225233,2.35917 0.05582,0.0606 0.557299,-0.38351 1.114387,-0.98695 0.557089,-0.60343 1.53937,-1.32848 2.182847,-1.61122 1.592993,-0.69995 4.91513,-1.12068 7.184004,-0.90981 2.211488,0.20553 2.268043,-0.15316 0.134408,-0.85249 -6.819302,-2.23512 -13.971825,-8.23604 -17.482209,-14.66744 -2.62207,-4.80393 -4.4059,-12.15348 -4.40789,-18.16088 -0.003,-8.22501 3.08976,-15.41571 8.888427,-20.66755 1.949183,-1.76536 2.257861,-2.17965 1.627701,-2.18457 -0.792065,-0.006 -3.093628,-1.34325 -4.453708,-2.58731 -0.81243,-0.74313 -2.26261,-2.45871 -3.22262,-3.8124 -2.52309,-3.557729 -3.59607,-4.428869 -6.76305,-5.490859 -2.01908,-0.67706 -6.1562,-1.32939 -8.51323,-1.34235 l -1.71979,-0.01 1.19062,-1.05105 c 1.62751,-1.43671 6.05861,-4.44862 8.46667,-5.75496 5.37768,-2.91732 11.8353,-4.8914 18.311972,-5.59792 1.787414,-0.19499 68.312701,-0.28028 218.611968,-0.28028 h 216.04272 v 49.212489 49.2125 l -216.49531,-0.0343 C 5.0553041,180.43191 -93.260554,180.31576 -94.35196,180.19267 Z M 332.42095,131.27262 V 89.997621 H 201.31991 70.218871 v 41.274999 41.275 H 201.31991 332.42095 Z M 84.792711,163.7892 c -1.352788,-0.43693 -2.003036,-0.85344 -3.198119,-2.04852 -2.295253,-2.29526 -3.15685,-5.16639 -3.168396,-10.55816 l -0.0052,-2.4474 h 4.497917 4.497917 l 5.29e-4,2.4474 c 7.93e-4,3.99663 0.842385,4.99221 4.365215,5.16314 2.254834,0.10941 3.481204,-0.41734 4.166777,-1.78971 0.404368,-0.80945 0.462661,-1.78219 0.463021,-7.72661 2.51e-4,-4.17471 -0.106553,-7.03524 -0.276606,-7.40833 -0.394232,-0.86493 -2.241841,-2.06362 -8.717016,-5.65541 -6.091449,-3.37886 -7.791545,-4.70506 -8.45322,-6.59402 -0.502782,-1.43534 -0.722281,-17.58011 -0.280191,-20.60898 0.710866,-4.87036 3.144856,-7.571879 7.558153,-8.388899 0.948873,-0.17566 3.611804,-0.24729 6.729587,-0.18101 4.24579,0.0903 5.370202,0.1966 6.350002,0.60055 1.909629,0.787311 3.311229,1.872709 4.175199,3.233269 1.40264,2.20887 1.69713,3.66981 1.84225,9.13934 l 0.13163,4.96094 h -4.51069 -4.510683 l -0.08521,-3.98975 -0.08521,-3.98975 -0.948346,-0.86843 c -1.432078,-1.31138 -4.349951,-1.55238 -6.358165,-0.52515 -1.462574,0.74814 -1.589482,1.53086 -1.50322,9.27126 l 0.07848,7.04226 0.985092,0.85117 c 0.5418,0.46814 3.161175,2.02421 5.820833,3.45793 8.194569,4.4174 9.294559,5.17643 10.345979,7.139 0.54205,1.01179 0.57112,1.45761 0.66101,10.13634 0.0582,5.62152 -0.0158,9.89401 -0.1944,11.22113 -0.52399,3.89359 -2.03644,6.21493 -5.00063,7.67512 l -1.756629,0.86533 -5.959796,0.0622 c -5.40912,0.0564 -6.116687,0.0115 -7.657827,-0.48625 z m 34.009999,0.1233 c -2.29793,-0.70566 -4.29192,-2.33273 -5.33811,-4.35585 -1.12589,-2.17722 -1.16757,-3.18349 -1.17239,-28.30158 -0.003,-16.15943 0.0892,-24.46955 0.28335,-25.51996 0.62615,-3.38715 2.57158,-5.882008 5.5119,-7.068549 1.38181,-0.55761 1.8653,-0.59581 7.56161,-0.59742 4.15111,-0.001 6.43504,0.10454 7.18537,0.3326 1.54395,0.46927 3.49171,1.844919 4.50686,3.183079 1.49948,1.97656 1.7475,3.2385 1.86973,9.51333 l 0.10957,5.62239 h -4.3601 -4.36009 l -0.1047,-4.03489 c -0.0823,-3.16908 -0.20283,-4.21846 -0.56192,-4.89032 -0.69998,-1.30965 -1.81189,-1.76641 -4.33147,-1.77932 -2.34689,-0.012 -3.30002,0.40283 -3.98424,1.7342 -0.25182,0.48999 -0.32772,5.84935 -0.33073,23.35013 -0.004,24.56287 -0.0435,23.86023 1.38509,24.76266 0.90176,0.56963 4.61478,0.6968 5.80649,0.19888 1.40906,-0.58875 1.86015,-1.65387 2.01038,-4.74707 l 0.12531,-2.57969 h 4.36186 4.36187 l -0.12327,4.16719 c -0.15602,5.27459 -0.58753,6.61216 -2.85303,8.84356 -2.34164,2.30642 -3.57486,2.60463 -10.67469,2.58124 -4.17429,-0.0138 -5.92205,-0.11901 -6.88465,-0.41461 z m 27.35157,-32.77217 V 97.935121 h 4.49792 4.49792 v 33.205209 33.20521 h -4.49792 -4.49792 z m 17.4625,-0.006 V 97.922321 l 4.41884,0.0725 4.41883,0.0725 4.64314,15.648849 4.64315,15.64884 0.0682,-15.71499 0.0682,-15.714989 h 4.49585 4.49583 v 33.205209 33.2052 h -4.49792 -4.49792 l 0.005,-6.54843 0.005,-6.54844 -4.70168,-14.94306 -4.7017,-14.94306 -0.0677,21.4915 -0.0677,21.49149 h -4.36406 -4.36407 v -33.2116 z m 40.74584,3.97515 v -29.23646 h -4.23334 -4.23333 v -3.96875 -3.968749 h 12.96458 12.96459 v 3.968749 3.96875 h -4.23334 -4.23333 v 29.23646 29.23646 h -4.49792 -4.49791 z m 22.48958,-3.96875 V 97.935121 h 4.49791 4.49792 v 33.205209 33.20521 h -4.49792 -4.49791 z m 17.19791,0 V 97.935121 h 4.49792 4.49792 v 29.236459 29.23646 h 6.08541 6.08542 v 3.96875 3.96875 h -10.58333 -10.58334 z m 26.19375,0 V 97.935121 h 4.49792 4.49792 v 29.236459 29.23646 h 6.08541 6.08542 v 3.96875 3.96875 H 280.8272 270.24386 Z m 25.98976,3.63802 0.0717,-29.56718 0.60413,-1.49413 c 1.16713,-2.8865 3.50509,-4.823759 6.61879,-5.484419 1.81713,-0.38556 11.2537,-0.38556 13.07084,0 3.11369,0.66066 5.45166,2.597919 6.61879,5.484419 l 0.60412,1.49413 0.0717,29.56718 0.0717,29.56719 h -4.37118 -4.37118 v -12.17655 -12.17654 l -5.09323,0.0719 -5.09323,0.0718 -0.0688,12.10469 -0.0688,12.10469 h -4.36851 -4.36851 z m 18.93356,-14.59916 c -0.0745,-11.58168 -0.0906,-11.90637 -0.62939,-12.63385 -0.89551,-1.2092 -1.83156,-1.52911 -4.47413,-1.52911 -2.64256,0 -3.57863,0.31991 -4.47414,1.52909 -0.53805,0.72653 -0.55501,1.05767 -0.62984,12.28278 -0.0423,6.34487 -0.0161,11.69411 0.0579,11.8872 0.10541,0.27472 1.23198,0.35107 5.18038,0.35107 h 5.04568 z m -385.574349,44.3032 c 12.297296,-2.01501 21.209614,-9.27996 24.835898,-20.24518 1.837809,-5.55721 2.289707,-11.12388 1.288724,-15.875 -0.524576,-2.48988 -1.551874,-5.39715 -1.262136,-3.57188 0.408696,2.57471 0.432345,7.31402 0.04895,9.809 -1.403562,9.13375 -6.924445,17.89343 -13.401251,21.26303 -1.186823,0.61746 -2.210197,1.07031 -2.27416,1.00635 -0.06397,-0.064 0.748794,-0.78115 1.806133,-1.59374 2.180362,-1.67567 4.3484,-3.8052 4.113329,-4.04027 -0.08654,-0.0865 -0.5256,0.0331 -0.975686,0.26583 -0.450085,0.23275 -0.818337,0.3491 -0.818337,0.25855 0,-0.0906 0.484422,-0.71497 1.076496,-1.3876 2.269234,-2.57798 4.834613,-7.04193 5.65072,-9.83265 0.5563,-1.90231 0.132215,-1.4798 -1.658279,1.6521 -4.603684,8.05268 -12.312827,13.29389 -20.333414,13.82407 l -1.801148,0.11906 1.322916,-0.40682 c 0.727605,-0.22376 2.275417,-0.70276 3.439584,-1.06445 3.356985,-1.04299 8.286297,-3.67507 7.801549,-4.16577 -0.07477,-0.0757 -1.265396,0.33833 -2.645834,0.92004 -4.580043,1.93002 -7.015458,2.46187 -11.241132,2.45488 -3.261534,-0.005 -3.946559,-0.0872 -5.732634,-0.68429 -4.383871,-1.46561 -8.320323,-4.53693 -10.928099,-8.52637 -0.723196,-1.10637 -1.404829,-2.01157 -1.514739,-2.01157 -0.346298,0 0.100332,1.65509 0.918813,3.40489 0.841602,1.79923 2.525678,4.03254 4.27591,5.67042 0.693298,0.6488 0.855985,0.89971 0.458568,0.70726 -1.118621,-0.54169 -4.452506,-3.93114 -5.709486,-5.80464 -3.026487,-4.51091 -4.349779,-9.62582 -3.827375,-14.79394 0.560062,-5.54069 2.264373,-9.6116 5.468979,-13.06318 1.161386,-1.25089 4.063664,-3.3729 4.613132,-3.3729 0.134287,0 -0.583215,0.80368 -1.594447,1.78594 -1.998057,1.94082 -3.933794,4.72777 -4.845341,6.97602 -0.74117,1.82802 -1.813608,5.8555 -1.635999,6.14391 0.23399,0.37995 0.530038,-0.15014 1.289138,-2.3083 0.803727,-2.28503 2.608455,-5.46229 4.231161,-7.44904 3.060734,-3.74738 7.969472,-6.43542 13.011065,-7.12489 1.139272,-0.1558 1.389062,-0.11905 1.389062,0.20434 0,0.47771 -1.466175,1.80044 -2.908985,2.62437 -1.026625,0.58626 -1.348981,0.99974 -0.779428,0.99974 0.154183,0 1.598935,-0.29766 3.210557,-0.66146 3.265194,-0.73707 3.808058,-0.78791 4.060034,-0.3802 0.265777,0.43003 -0.617429,1.24996 -2.450854,2.27527 -1.565246,0.87533 -2.076153,1.41659 -1.329761,1.40874 0.181901,-0.002 1.461823,-0.23847 2.844271,-0.52569 4.940183,-1.02637 6.207701,-0.41638 2.903556,1.39733 -0.47221,0.2592 -0.79003,0.53981 -0.706268,0.62357 0.08376,0.0838 1.856284,-0.0415 3.938942,-0.27844 6.64891,-0.75633 8.836392,0.22583 7.757559,3.48306 -0.180382,0.54462 -0.114961,0.59532 0.768226,0.59532 1.32131,0 2.596821,-0.57913 3.278798,-1.48869 0.443251,-0.59118 0.622507,-0.68064 0.805961,-0.40222 0.17748,0.26934 0.366077,0.28839 0.761275,0.0769 1.418762,-0.75929 2.499193,-4.53159 1.29958,-4.53745 -0.885169,-0.004 -2.411664,-0.65349 -3.233586,-1.37515 -1.317207,-1.15652 -1.782972,-2.18199 -1.971472,-4.34058 -0.204684,-2.34394 -0.889431,-3.72187 -2.857801,-5.75079 -3.072927,-3.16745 -7.237357,-5.46859 -12.006271,-6.6343 -3.519966,-0.860408 -4.667432,-1.351998 -6.747271,-2.890599 -0.90373,-0.66855 -1.714429,-1.10021 -1.801551,-0.95924 -0.191095,0.30919 -0.03692,0.58525 1.135909,2.03388 1.27285,1.572169 2.818382,2.513849 6.434831,3.920689 1.728597,0.67244 3.412392,1.4474 3.741764,1.72213 0.825111,0.68821 0.627954,0.64744 -1.790422,-0.37021 -2.889838,-1.21606 -5.108522,-1.75498 -7.995613,-1.94217 -2.160344,-0.14007 -2.447396,-0.10757 -2.447396,0.27707 0,0.35348 -0.287229,0.43674 -1.521354,0.44099 -3.05334,0.0105 -6.6148,0.78219 -6.259944,1.35636 0.07679,0.12425 0.430242,0.2259 0.785455,0.2259 1.315458,0 0.586986,0.42131 -1.220602,0.70594 -1.841193,0.28991 -5.277305,1.73607 -5.277305,2.22105 0,0.30596 0.363355,0.30451 1.705877,-0.007 1.945751,-0.45119 1.936314,0.064 -0.02678,1.46187 -6.854512,4.88087 -11.145562,12.74585 -12.020942,22.03294 -0.86053,9.12954 1.94659,17.36862 8.134737,23.87594 4.948364,5.2036 11.912803,8.96768 18.214401,9.84435 1.898837,0.26417 6.539864,0.15647 8.731249,-0.2026 z m 8.960869,-50.67764 c -0.387162,-0.58505 -0.643488,-1.12416 -0.569616,-1.19803 0.362503,-0.3625 3.382706,1.43265 3.382706,2.01062 0,0.13811 -0.474562,0.25112 -1.054579,0.25112 -0.938115,0 -1.132322,-0.11748 -1.758511,-1.06371 z m 55.465172,46.70433 v -4.10104 h -6.085416 -6.085417 V 127.17158 97.935121 h -4.497917 -4.497916 v 33.161109 c 0,18.23861 0.07938,33.24049 0.17639,33.3375 0.09701,0.097 4.859512,0.17639 10.583333,0.17639 h 10.406943 z m 27.131761,3.47114 c 3.824626,-1.19405 6.016461,-4.15375 6.729899,-9.08759 0.155689,-1.07669 0.2612,-12.8011 0.264348,-29.37469 l 0.0052,-27.582819 h -4.49207 -4.492066 l -0.072,27.979689 c -0.07019,27.28004 -0.08499,28.00119 -0.591987,28.83946 -0.7953,1.31497 -2.209072,1.73854 -5.37801,1.61126 -2.826904,-0.11355 -3.6221092,-0.42136 -4.4832062,-1.73538 -0.437296,-0.66731 -0.471173,-2.47611 -0.537565,-28.70361 L 8.0323658,97.935121 H 3.5391596 -0.95404479 l 0.00923,27.847399 c 0.00995,29.97681 0.026559,30.37756 1.3829056,33.34021 0.3551582,0.77577 1.03084309,1.8491 1.50152359,2.38518 1.083273,1.23378 3.6507552,2.50508 5.7052974,2.825 2.5145292,0.39155 11.9075392,0.14626 13.5057202,-0.35269 z M 44.70178,152.1747 c 1.613117,-6.76671 2.98894,-12.46681 3.05738,-12.66687 0.06844,-0.20007 1.252794,5.33634 2.6319,12.30312 l 2.507464,12.66688 4.294547,0.0727 c 3.474405,0.0588 4.29455,0.004 4.29455,-0.28614 0,-0.19736 -1.725451,-7.80562 -3.834333,-16.90725 l -3.834331,-16.54841 3.966622,-16.35471 c 2.181643,-8.9951 3.966626,-16.391659 3.966626,-16.436809 0,-0.0452 -1.875235,-0.0812 -4.167188,-0.0801 l -4.167187,0.002 -2.624085,11.705789 c -1.443246,6.43818 -2.709735,11.9439 -2.81442,12.23495 -0.159089,0.44229 -0.220361,0.37713 -0.373222,-0.39688 -0.100586,-0.50932 -1.215345,-5.9862 -2.477246,-12.17083 l -2.294361,-11.244799 -4.451659,-0.0726 c -4.159951,-0.0679 -4.442071,-0.0419 -4.305332,0.39688 0.08048,0.25823 1.870869,7.675239 3.97864,16.482249 l 3.832313,16.01274 -4.220176,16.6633 c -2.321097,9.16481 -4.221596,16.75562 -4.223335,16.86845 -0.0019,0.11284 1.870427,0.17237 4.160364,0.13229 l 4.163523,-0.0729 z m -116.82874,-2.03188 c 4.857501,-1.14614 8.088952,-4.11469 8.962924,-8.23374 0.55054,-2.59471 0.229957,-5.38655 -0.492207,-4.28646 -0.143293,0.21828 -0.262355,0.53214 -0.264583,0.69746 -0.01029,0.76384 -2.240323,3.58366 -3.347024,4.23223 -0.648367,0.37997 -1.249815,0.61988 -1.336554,0.53315 -0.08674,-0.0867 0.321318,-0.78582 0.906796,-1.55351 1.433547,-1.87967 1.920515,-2.90395 2.09963,-4.4163 0.252222,-2.12962 -0.233206,-3.03215 -3.356176,-6.2399 -1.558419,-1.60073 -3.088431,-3.41169 -3.400022,-4.02436 -0.940004,-1.84827 -0.666253,-3.4812 1.019929,-6.08392 0.207835,-0.32081 0.304628,-0.65653 0.215098,-0.74606 -0.27341,-0.27341 -2.314408,0.90652 -3.569957,2.06385 -1.685443,1.55358 -2.201585,2.7007 -2.194544,4.87734 0.0063,1.93634 0.442958,3.19267 1.796711,5.16898 1.829049,2.67019 2.295999,4.26514 1.485871,5.07527 -1.023321,1.02332 -3.698076,-0.0253 -4.781883,-1.87464 -0.602094,-1.0274 -0.670229,-1.36871 -0.523116,-2.62042 0.09789,-0.83288 0.0654,-1.43917 -0.07713,-1.43917 -0.135453,0 -0.658196,0.48124 -1.161653,1.06941 -1.372404,1.60335 -1.612162,2.82211 -1.395362,7.09305 0.133043,2.62097 0.09605,3.84353 -0.131416,4.34276 -0.909664,1.9965 -2.700354,0.42537 -3.069717,-2.69333 -0.170588,-1.44035 0.262387,-4.15463 1.012547,-6.34758 0.558715,-1.63329 0.648264,-4.59226 0.1857,-6.13616 -0.166999,-0.5574 -0.602784,-1.28559 -0.968409,-1.6182 -0.610428,-0.5553 -0.647875,-0.56148 -0.458076,-0.0756 0.881695,2.25725 0.275201,4.82652 -1.963504,8.31794 -2.83064,4.41458 -2.868967,6.52778 -0.181735,10.02004 3.68409,4.78775 8.619308,6.40052 14.987863,4.89784 z m -43.39167,-50.12553 c -1.25452,-0.503628 -5.69301,-1.525849 -7.40833,-1.706209 -2.03609,-0.21408 -2.24166,-0.30342 -1.83254,-0.79639 0.4468,-0.53835 1.67707,-0.46266 4.622,0.28438 3.17337,0.805 7.15359,2.578749 5.61106,2.500529 -0.1819,-0.009 -0.62839,-0.13626 -0.99219,-0.28231 z"
       id="path179" /></g></svg>
