<?xml version="1.0" encoding="UTF-8" standalone="no"?>
<!-- Created with Inkscape (http://www.inkscape.org/) -->

<svg
   width="107.15625mm"
   height="107.15625mm"
   viewBox="0 0 107.15625 107.15625"
   version="1.1"
   id="svg5"
   xml:space="preserve"
   inkscape:version="1.2.2 (732a01da63, 2022-12-09)"
   sodipodi:docname="dragon-logo-svg.svg"
   xmlns:inkscape="http://www.inkscape.org/namespaces/inkscape"
   xmlns:sodipodi="http://sodipodi.sourceforge.net/DTD/sodipodi-0.dtd"
   xmlns="http://www.w3.org/2000/svg"
   xmlns:svg="http://www.w3.org/2000/svg"><sodipodi:namedview
     id="namedview7"
     pagecolor="#ffffff"
     bordercolor="#000000"
     borderopacity="0.25"
     inkscape:showpageshadow="2"
     inkscape:pageopacity="0.0"
     inkscape:pagecheckerboard="0"
     inkscape:deskcolor="#d1d1d1"
     inkscape:document-units="mm"
     showgrid="false"
     inkscape:zoom="0.54299809"
     inkscape:cx="31.307661"
     inkscape:cy="261.51105"
     inkscape:window-width="1920"
     inkscape:window-height="1017"
     inkscape:window-x="1192"
     inkscape:window-y="838"
     inkscape:window-maximized="1"
     inkscape:current-layer="layer1" /><defs
     id="defs2" /><g
     inkscape:label="Layer 1"
     inkscape:groupmode="layer"
     id="layer1"
     transform="translate(-51.853432,-74.593567)"><path
       style="fill:#000000;stroke-width:0.264583"
       d="m 100.51302,178.02264 c -18.964136,-1.97677 -35.500876,-15.30323 -41.499666,-33.44335 -4.65574,-14.07876 -2.67192,-29.67584 5.36096,-42.14874 l 1.41471,-2.19665 0.662,0.60915 c 0.94387,0.86852 1.63797,2.52896 1.64472,3.93457 0.0103,2.1461 -0.67796,3.76515 -2.82873,6.65411 -3.1227,4.19447 -5.25815,7.5795 -6.66933,10.57196 -1.22821,2.60447 -2.09886,5.37252 -1.78771,5.68366 0.0798,0.0798 0.58404,-0.72646 1.12051,-1.79173 1.94592,-3.8641 4.64842,-7.41297 7.63569,-10.02706 1.94175,-1.69918 2.37202,-1.6889 0.90638,0.0217 -2.11335,2.4665 -4.43106,5.62878 -5.24578,7.15736 -0.94763,1.77794 -1.61259,3.56343 -1.40458,3.77145 0.0808,0.0808 0.63729,-0.13701 1.2366,-0.48406 1.0418,-0.60331 1.8153,-0.76309 3.39554,-0.70142 0.90179,0.0352 2.45756,1.37918 3.13606,2.70916 0.7372,1.44502 1.30491,4.42323 1.30491,6.84554 0,1.14607 0.11991,2.15786 0.26646,2.24843 0.14654,0.0906 0.3149,0.008 0.37412,-0.18282 1.14024,-3.68013 3.19802,-8.05706 5.18352,-11.02541 1.61817,-2.41919 4.85149,-6.10387 5.12481,-5.84022 0.0859,0.0828 -0.40166,0.91627 -1.08342,1.85208 -4.99485,6.85608 -8.54257,14.99726 -8.54257,19.60317 0,0.84984 0.1026,1.54517 0.22799,1.54517 0.12539,0 0.99041,-0.3457 1.92227,-0.76822 3.12198,-1.41557 5.42262,-1.32329 7.26151,0.29129 1.20055,1.05409 1.79596,2.23904 2.48901,4.95341 1.2366,4.84329 2.96042,9.54644 3.49902,9.54644 0.13545,0 0.17415,-0.22725 0.086,-0.505 -1.19733,-3.77243 -1.46143,-6.0775 -0.91981,-8.02781 0.44451,-1.60059 0.77973,-1.14652 0.78132,1.05833 0.003,3.72041 0.55949,4.80665 2.53271,4.94087 1.78316,0.1213 3.142,0.85916 4.78866,2.60026 1.59154,1.68281 2.82656,3.54556 4.22634,6.37448 0.55125,1.11404 1.08711,2.02554 1.19082,2.02554 0.1037,0 0.44256,-0.35673 0.75302,-0.79273 1.313086,-1.84407 4.179126,-2.7588 8.532676,-2.72333 1.56388,0.0128 2.78793,-0.0666 2.72011,-0.17635 -0.0678,-0.10973 -0.87111,-0.47039 -1.78508,-0.80146 -7.11133,-2.57597 -13.777166,-8.21051 -17.250696,-14.58179 -2.32226,-4.2596 -4.07164,-10.97722 -4.30495,-16.53108 -0.2923,-6.95813 1.15787,-12.39763 4.68539,-17.57451 1.28151,-1.8807 3.92511,-4.75222 5.13152,-5.57391 1.21108,-0.82488 1.19617,-1.21826 -0.059,-1.55625 -2.24812,-0.60535 -4.54848,-2.68653 -7.28315,-6.589192 -0.78634,-1.122193 -1.84956,-2.408982 -2.36271,-2.859531 -2.13684,-1.876173 -6.34602,-3.161295 -11.38655,-3.476475 l -2.96288,-0.185267 2.28871,-1.787287 c 20.13017,-15.719991 48.098476,-13.985406 65.736486,4.076925 14.17896,14.520067 18.00556,35.666377 9.83168,54.331167 -3.96934,9.06386 -11.34247,17.29708 -20.11082,22.45679 -8.87339,5.22152 -19.67719,7.56099 -29.9648,6.48864 z m 26.47714,-16.21241 c 10.26051,-2.55448 17.44204,-8.39483 21.28517,-17.31009 2.01307,-4.66992 3.17449,-11.53755 2.62827,-15.5414 -0.38613,-2.83039 -1.02947,-5.66424 -1.46932,-6.47216 -0.32372,-0.59463 -0.34057,-0.50107 -0.16673,0.92604 0.34171,2.80517 0.18049,8.31375 -0.31203,10.66167 -1.9631,9.35836 -8.13449,17.87729 -14.78174,20.40456 -0.39607,0.15059 -0.72014,0.23359 -0.72014,0.18444 0,-0.0491 0.80367,-0.69111 1.78594,-1.42657 3.01401,-2.25672 5.47069,-5.07884 3.50573,-4.02722 -1.00245,0.5365 -0.89268,0.0686 0.32287,-1.37632 2.34903,-2.79218 4.54203,-6.67195 5.35047,-9.46581 0.55355,-1.91301 0.12757,-1.48613 -1.71036,1.714 -2.45216,4.2696 -5.23808,7.26334 -9.12236,9.80284 -3.46016,2.26223 -7.53885,3.71333 -11.1125,3.95358 l -1.85208,0.12451 1.32292,-0.40667 c 0.7276,-0.22367 2.27541,-0.70261 3.43958,-1.0643 1.16417,-0.3617 3.06917,-1.12844 4.23333,-1.70387 3.64117,-1.79977 5.05865,-3.39994 1.66167,-1.87582 -8.28151,3.71566 -15.68827,3.84264 -21.62652,0.37077 -2.35646,-1.37773 -5.36078,-4.28942 -6.96121,-6.7466 -1.42573,-2.18893 -1.93645,-2.57287 -1.64256,-1.23478 0.54042,2.4605 2.28485,5.31058 4.72561,7.72077 1.57476,1.55503 1.58619,1.57617 0.42739,0.79089 -2.80189,-1.89877 -5.9324,-6.0033 -7.428616,-9.73991 -1.16135,-2.90032 -1.63371,-5.39736 -1.6,-8.45807 0.0806,-7.32293 3.251836,-13.96065 8.271056,-17.31235 2.26042,-1.50945 2.50755,-1.33679 0.56584,0.39535 -1.71894,1.53341 -4.0942,4.86132 -5.08712,7.12741 -0.31881,0.72761 -0.86709,2.39028 -1.218396,3.69482 -1.02652,3.81184 -0.0861,3.46435 1.093146,-0.40391 0.47632,-1.56251 2.66491,-5.19615 4.24058,-7.04049 3.0868,-3.61314 7.79309,-6.11618 12.87132,-6.84561 1.02413,-0.1471 1.25677,-0.10656 1.25677,0.21899 0,0.49023 -1.42122,1.76581 -2.88242,2.58705 -0.59748,0.33581 -1.08633,0.7212 -1.08633,0.85644 0,0.28318 0.41475,0.22389 4.30574,-0.61548 2.15213,-0.46426 2.92525,-0.5402 3.15552,-0.30993 0.43155,0.43156 -0.20581,1.06606 -2.30276,2.2924 -2.49169,1.4572 -2.20482,1.86018 0.7722,1.08477 2.28899,-0.59621 5.07155,-0.80629 5.32156,-0.40176 0.22603,0.36572 -0.27393,0.84099 -1.76443,1.67727 -0.50902,0.28559 -0.74655,0.54975 -0.55584,0.61813 0.18316,0.0657 1.98187,-0.0696 3.99711,-0.3006 6.48815,-0.74373 8.65019,0.24989 7.57927,3.48322 -0.18038,0.54462 -0.11496,0.59532 0.76823,0.59532 1.32131,0 2.59682,-0.57913 3.2788,-1.48869 0.44325,-0.59118 0.62251,-0.68064 0.80596,-0.40222 0.56518,0.85771 1.92707,-0.6725 2.45125,-2.7542 0.28426,-1.1289 0.26693,-1.29047 -0.17287,-1.61206 -0.26884,-0.19658 -0.80562,-0.35742 -1.19285,-0.35742 -0.95999,0 -2.32022,-0.96764 -3.28014,-2.33344 -0.64684,-0.92035 -0.82742,-1.49833 -0.95485,-3.05626 -0.20042,-2.45039 -0.89989,-3.89346 -2.83354,-5.84591 -3.14395,-3.17453 -7.34045,-5.474208 -12.125,-6.644487 -3.19621,-0.781781 -4.85104,-1.512125 -6.90837,-3.048948 -1.63102,-1.218369 -2.0501,-0.950606 -0.96552,0.616904 1.08773,1.572061 2.93722,2.930472 5.30109,3.89354 4.73313,1.928331 5.39049,2.229931 5.70518,2.617571 0.27206,0.33513 0.26032,0.3765 -0.067,0.23605 -4.86002,-2.08557 -7.70132,-2.83918 -10.70447,-2.83918 -1.36223,0 -1.73094,0.08454 -1.73094,0.39687 0,0.30616 -0.34776,0.39808 -1.52136,0.40212 -3.05334,0.0105 -6.6148,0.78219 -6.25994,1.35636 0.0768,0.12424 0.43024,0.2259 0.78545,0.2259 1.3048,0 0.59366,0.42026 -1.18507,0.70034 -1.9144,0.30145 -5.312836,1.71097 -5.312836,2.20354 0,0.1935 0.555616,0.22893 1.719796,0.10966 0.94588,-0.0969 1.71979,-0.11987 1.71979,-0.051 0,0.0688 -1.07869,0.93069 -2.39709,1.91521 -3.935006,2.93849 -7.353366,7.42275 -9.228856,12.10656 -1.85206,4.62531 -2.70561,10.86338 -2.16653,15.83378 0.77546,7.14969 3.5644,12.85677 8.86413,18.13885 4.814596,4.79856 10.325786,7.81543 16.437716,8.99814 2.92403,0.56583 9.12686,0.3053 12.45423,-0.52308 z m 6.29623,-50.17695 c -0.38717,-0.58504 -0.64349,-1.12415 -0.56962,-1.19802 0.3625,-0.3625 3.38271,1.43265 3.38271,2.01062 0,0.13811 -0.47457,0.25112 -1.05458,0.25112 -0.93812,0 -1.13232,-0.11748 -1.75851,-1.06372 z m -10.70724,36.36832 c 4.97928,-1.14789 8.17436,-4.14494 9.01708,-8.45821 0.3489,-1.78574 0.27468,-4.13815 -0.13479,-4.27259 -0.14983,-0.0492 -0.61051,0.62246 -1.02374,1.49257 -0.82295,1.73282 -2.11827,3.21846 -3.37098,3.86626 -1.16904,0.60453 -1.22375,0.28259 -0.17074,-1.00456 2.09432,-2.55999 2.76221,-5.06765 1.93007,-7.24659 -0.33992,-0.89006 -1.20602,-1.95581 -3.17302,-3.90442 -2.91227,-2.88504 -3.84105,-4.31944 -3.84105,-5.9321 0,-0.93211 0.59875,-2.42136 1.58646,-3.94595 0.20783,-0.32081 0.30463,-0.65653 0.2151,-0.74606 -0.27341,-0.27341 -2.31441,0.90652 -3.56996,2.06385 -1.68815,1.55607 -2.20035,2.69817 -2.20035,4.9062 0,1.95527 0.3452,2.83098 2.46139,6.24394 1.22251,1.97166 1.47906,3.15842 0.83632,3.86864 -0.83209,0.91945 -2.55247,0.54818 -4.02033,-0.86763 -1.0807,-1.04237 -1.4984,-2.28734 -1.27262,-3.793 0.21994,-1.46667 -0.0714,-1.49011 -1.26016,-0.10138 -1.37248,1.60344 -1.61534,2.83433 -1.40352,7.11365 0.12789,2.58379 0.09,3.85423 -0.12948,4.33582 -0.61512,1.35004 -1.69612,1.11948 -2.5193,-0.53733 -0.76084,-1.53134 -0.65038,-4.8976 0.24991,-7.61592 1.1553,-3.48827 0.9056,-7.31854 -0.56426,-8.65568 -0.61043,-0.5553 -0.64788,-0.56148 -0.45808,-0.0756 0.85381,2.18585 0.25943,4.89752 -1.74539,7.96285 -1.89445,2.89658 -2.33272,3.96015 -2.33951,5.67739 -0.012,3.04451 2.9209,6.86183 6.69634,8.71553 3.30879,1.62458 6.04677,1.86881 10.20461,0.91029 z M 77.917484,97.450865 c -1.07692,-0.353032 -3.10098,-0.828492 -4.49792,-1.056578 -4.04132,-0.659851 -3.82642,-0.593119 -3.43373,-1.066288 0.44572,-0.537055 2.57492,-0.317584 5.69737,0.587266 2.79771,0.810745 5.87561,2.310253 4.52304,2.203564 -0.1819,-0.01435 -1.21184,-0.314932 -2.28876,-0.667964 z"
       id="path179" /></g></svg>
